<?xml version="1.0" encoding="utf-8"?>
<!-- Generator: Adobe Illustrator 16.0.0, SVG Export Plug-In . SVG Version: 6.00 Build 0)  -->
<!DOCTYPE svg PUBLIC "-//W3C//DTD SVG 1.1//EN" "http://www.w3.org/Graphics/SVG/1.1/DTD/svg11.dtd">
<svg version="1.1" id="Calque_1" xmlns="http://www.w3.org/2000/svg" xmlns:xlink="http://www.w3.org/1999/xlink" x="0px" y="0px"
	 width="216.836px" height="200px" viewBox="0 0 216.836 200" enable-background="new 0 0 216.836 200" xml:space="preserve">
<g>
	<path d="M-146.271,100.446l43.953,38.097c3.99,3.46,4.426,9.555,0.967,13.545l-1.569,1.811c-3.46,3.99-9.554,4.426-13.544,0.967
		l-43.624-37.812"/>
</g>
<path d="M-252.984,72.286c0-31.591,25.608-57.199,57.202-57.199c31.59,0,57.198,25.608,57.198,57.199
	c0,31.594-25.608,57.201-57.198,57.201C-227.376,129.486-252.984,103.878-252.984,72.286z M-195.056,114.086
	c23.084,0,41.798-18.714,41.798-41.802c0-23.084-18.714-41.798-41.798-41.798c-23.088,0-41.801,18.714-41.801,41.798
	C-236.856,95.372-218.143,114.086-195.056,114.086z"/>
<g>
	<path fill="#8B37CD" d="M150.286,120.059l61.899,53.651c5.62,4.872,6.232,13.456,1.362,19.076l-2.211,2.549
		c-4.872,5.62-13.454,6.233-19.074,1.362l-61.436-53.252"/>
</g>
<path fill="#8B37CD" d="M0,80.4C0,35.91,36.064-0.153,80.558-0.153c44.489,0,80.552,36.063,80.552,80.553
	c0,44.494-36.063,80.557-80.552,80.557C36.064,160.956,0,124.892,0,80.4z M81.581,139.268c32.51,0,58.865-26.355,58.865-58.871
	c0-32.51-26.355-58.865-58.865-58.865c-32.515,0-58.869,26.355-58.869,58.865C22.714,112.912,49.068,139.268,81.581,139.268z"/>
</svg>
