<?xml version="1.0" encoding="utf-8"?>
<!-- Generator: Adobe Illustrator 16.0.0, SVG Export Plug-In . SVG Version: 6.00 Build 0)  -->
<!DOCTYPE svg PUBLIC "-//W3C//DTD SVG 1.1//EN" "http://www.w3.org/Graphics/SVG/1.1/DTD/svg11.dtd">
<svg version="1.1" id="Calque_1" xmlns="http://www.w3.org/2000/svg" xmlns:xlink="http://www.w3.org/1999/xlink" x="0px" y="0px"
	 width="154px" height="200px" viewBox="0 0 154 200" enable-background="new 0 0 154 200" xml:space="preserve">
<path fill="#8B37CD" d="M154,170.784c0,9.951-7.902,18.018-17.651,18.018H17.65c-9.749,0-17.65-8.066-17.65-18.018V28.893
	c0-9.952,7.902-18.018,17.65-18.018h118.698c9.749,0,17.651,8.066,17.651,18.018V170.784z"/>
<path fill="#FFFFFF" d="M0,113.387h79.63l-31.238,31.287c-4.969,5.229-4.759,13.494,0.47,18.463
	c5.044,4.793,12.961,4.791,18.001-0.008l53.338-53.338c2.458-2.443,3.836-5.77,3.824-9.236c0.009-0.108,0.009-0.216,0-0.324
	c0.008-0.108,0.008-0.217,0-0.324c-0.001-3.464-1.376-6.785-3.824-9.235L66.862,37.333c-4.969-5.228-13.234-5.438-18.463-0.47
	c-5.228,4.969-5.438,13.234-0.47,18.463c0.15,0.158,0.304,0.312,0.462,0.462l31.529,31.481H0V113.387z"/>
</svg>
