<?xml version="1.0" encoding="utf-8"?>
<!-- Generator: Adobe Illustrator 16.0.0, SVG Export Plug-In . SVG Version: 6.00 Build 0)  -->
<!DOCTYPE svg PUBLIC "-//W3C//DTD SVG 1.1//EN" "http://www.w3.org/Graphics/SVG/1.1/DTD/svg11.dtd">
<svg version="1.1" id="Calque_1" xmlns="http://www.w3.org/2000/svg" xmlns:xlink="http://www.w3.org/1999/xlink" x="0px" y="0px"
	 width="88.159px" height="200px" viewBox="0 0 88.159 200" enable-background="new 0 0 88.159 200" xml:space="preserve">
<g>
	<path d="M-134.16,185.439c0,5.6,4.64,10.24,10.24,10.24s10.24-4.642,10.24-10.24V146.4h-20.48V185.439z"/>
	<path d="M-123.92,43.68c-18.4,0-33.6,15.04-33.6,33.6v45.281c0,9.279,7.68,16.959,16.96,16.959h33.121
		c9.279,0,16.959-7.68,16.959-16.959V77.28C-90.32,58.72-105.52,43.68-123.92,43.68z M-123.92,62.4c-8.16,0-14.72,6.56-14.72,14.72
		v21.44c0,1.92-1.6,3.36-3.36,3.36s-3.36-1.6-3.36-3.36V77.28c-0.16-12,9.6-21.6,21.44-21.6c1.92,0,3.359,1.6,3.359,3.36
		C-120.561,60.8-122,62.4-123.92,62.4z"/>
</g>
<g>
	<path fill="#FF9B1B" d="M30.718,186.801c0,7.364,6.103,13.466,13.466,13.466c7.365,0,13.466-6.104,13.466-13.466v-51.337H30.718
		V186.801z"/>
	<path fill="#FF9B1B" d="M44.184,0.389C19.987,0.389,0,20.166,0,44.572v59.543c0,12.202,10.099,22.301,22.302,22.301h43.553
		c12.202,0,22.303-10.099,22.303-22.301V44.572C88.366,20.166,68.38,0.389,44.184,0.389z M44.184,25.005
		c-10.73,0-19.356,8.626-19.356,19.356v28.193c0,2.526-2.104,4.419-4.418,4.419c-2.315,0-4.418-2.104-4.418-4.419V44.572
		c-0.21-15.78,12.623-28.403,28.193-28.403c2.524,0,4.417,2.104,4.417,4.419C48.601,22.9,46.708,25.005,44.184,25.005z"/>
</g>
</svg>
