<?xml version="1.0" encoding="utf-8"?>
<!-- Generator: Adobe Illustrator 16.0.0, SVG Export Plug-In . SVG Version: 6.00 Build 0)  -->
<!DOCTYPE svg PUBLIC "-//W3C//DTD SVG 1.1//EN" "http://www.w3.org/Graphics/SVG/1.1/DTD/svg11.dtd">
<svg version="1.1" id="Calque_1" xmlns="http://www.w3.org/2000/svg" xmlns:xlink="http://www.w3.org/1999/xlink" x="0px" y="0px"
	 width="172.178px" height="200px" viewBox="0 0 172.178 200" enable-background="new 0 0 172.178 200" xml:space="preserve">
<path fill="#FF00FF" d="M168.277,111.442c-0.019-0.135-0.027-0.272-0.058-0.399c-0.034-0.16-0.092-0.314-0.144-0.467
	c-0.049-0.146-0.086-0.287-0.146-0.425c-0.065-0.139-0.146-0.27-0.218-0.399c-0.074-0.135-0.145-0.276-0.23-0.399
	c-0.089-0.129-0.198-0.245-0.301-0.362c-0.095-0.115-0.188-0.233-0.294-0.336c-0.076-0.076-0.173-0.144-0.256-0.217
	c3.628-7.218,5.546-15.179,5.546-23.376c0-26.292-19.551-48.044-44.868-51.633C119.799,13.318,100.814,0,79.075,0
	C50.655,0,27.534,23.121,27.534,51.541c0,0.485,0.061,0.968,0.073,1.454C11.461,59.419,0,75.172,0,93.585
	c0,4.89,0.892,9.732,2.483,14.324c-0.1,0.058-0.205,0.103-0.297,0.167c-0.137,0.087-0.259,0.195-0.387,0.298
	c-0.118,0.092-0.239,0.182-0.345,0.287c-0.108,0.104-0.201,0.225-0.297,0.339c-0.099,0.118-0.208,0.23-0.294,0.357
	c-0.089,0.127-0.16,0.27-0.237,0.409c-0.07,0.128-0.15,0.253-0.211,0.39c-0.063,0.138-0.103,0.287-0.15,0.435
	c-0.051,0.151-0.105,0.297-0.141,0.454c-0.028,0.132-0.038,0.269-0.057,0.402c-0.026,0.187-0.051,0.364-0.054,0.551
	c0,0.031-0.01,0.063-0.01,0.092c0,0.109,0.026,0.214,0.032,0.326c0.009,0.176,0.019,0.35,0.054,0.524
	c0.032,0.173,0.083,0.336,0.131,0.502c0.032,0.104,0.045,0.215,0.083,0.322l30.964,83.105c0.006,0.022,0.025,0.043,0.035,0.065
	c0.16,0.409,0.377,0.786,0.639,1.131c0.057,0.072,0.118,0.147,0.182,0.217c0.269,0.32,0.565,0.607,0.908,0.847
	c0.012,0.01,0.022,0.02,0.032,0.03c0.348,0.234,0.742,0.414,1.147,0.554c0.089,0.033,0.179,0.058,0.268,0.08
	c0.41,0.117,0.835,0.2,1.282,0.2h96.83c0.447,0,0.869-0.08,1.278-0.2c0.093-0.024,0.183-0.05,0.271-0.08
	c0.405-0.14,0.795-0.319,1.145-0.554c0.013-0.011,0.025-0.022,0.037-0.033c0.34-0.236,0.637-0.526,0.904-0.844
	c0.064-0.069,0.122-0.14,0.183-0.217c0.262-0.35,0.477-0.729,0.639-1.139c0.008-0.022,0.026-0.035,0.032-0.058l30.965-83.105
	c0.038-0.095,0.048-0.197,0.076-0.297c0.054-0.175,0.106-0.348,0.142-0.529c0.031-0.177,0.037-0.343,0.05-0.515
	c0.01-0.112,0.035-0.218,0.035-0.334c0-0.03-0.009-0.063-0.009-0.092C168.33,111.802,168.304,111.625,168.277,111.442z
	 M156.309,107.29H85.105c1.458-4.415,2.288-9.035,2.288-13.711c0-8.821-2.649-17.025-7.162-23.903
	c6.329-16.38,21.996-27.241,39.735-27.241c23.504,0,42.623,19.119,42.623,42.623C162.592,92.972,160.406,100.61,156.309,107.29z"/>
<path d="M-128.713,108.953c-0.015-0.105-0.021-0.213-0.045-0.313c-0.027-0.125-0.072-0.246-0.112-0.365
	c-0.038-0.113-0.067-0.225-0.114-0.332c-0.051-0.108-0.113-0.211-0.17-0.313c-0.059-0.105-0.113-0.216-0.181-0.313
	c-0.069-0.101-0.155-0.191-0.235-0.283c-0.074-0.09-0.146-0.183-0.229-0.263c-0.06-0.06-0.136-0.112-0.2-0.17
	c2.838-5.646,4.338-11.873,4.338-18.285c0-20.565-15.293-37.58-35.096-40.388c-5.875-15.73-20.725-26.147-37.729-26.147
	c-22.23,0-40.315,18.085-40.315,40.315c0,0.38,0.048,0.757,0.058,1.137c-12.63,5.025-21.595,17.348-21.595,31.75
	c0,3.825,0.697,7.613,1.942,11.205c-0.078,0.045-0.16,0.08-0.232,0.131c-0.107,0.067-0.203,0.152-0.303,0.232
	c-0.092,0.072-0.188,0.143-0.27,0.225c-0.085,0.082-0.157,0.176-0.232,0.266c-0.078,0.092-0.163,0.18-0.23,0.279
	c-0.07,0.1-0.125,0.211-0.185,0.32c-0.055,0.1-0.117,0.197-0.165,0.305c-0.05,0.107-0.08,0.225-0.117,0.34
	c-0.04,0.118-0.083,0.232-0.11,0.355c-0.022,0.103-0.03,0.21-0.045,0.314c-0.02,0.146-0.04,0.285-0.042,0.431
	c0,0.024-0.007,0.05-0.007,0.072c0,0.085,0.02,0.167,0.025,0.255c0.007,0.138,0.015,0.273,0.042,0.41
	c0.025,0.135,0.065,0.263,0.103,0.393c0.025,0.082,0.035,0.168,0.065,0.252l24.22,65.005c0.005,0.018,0.02,0.033,0.027,0.051
	c0.125,0.32,0.295,0.615,0.5,0.885c0.045,0.058,0.092,0.115,0.143,0.17c0.21,0.25,0.442,0.475,0.71,0.662
	c0.01,0.008,0.018,0.016,0.025,0.023c0.272,0.185,0.58,0.324,0.897,0.435c0.07,0.024,0.14,0.045,0.21,0.063
	c0.32,0.091,0.653,0.155,1.002,0.155h75.741c0.35,0,0.68-0.063,1-0.155c0.072-0.021,0.143-0.04,0.212-0.063
	c0.317-0.11,0.622-0.25,0.896-0.435c0.01-0.008,0.02-0.018,0.029-0.025c0.266-0.186,0.498-0.412,0.707-0.66
	c0.051-0.055,0.096-0.109,0.143-0.17c0.205-0.272,0.373-0.57,0.5-0.89c0.006-0.018,0.021-0.028,0.025-0.046l24.221-65.005
	c0.029-0.074,0.037-0.154,0.06-0.232c0.042-0.137,0.083-0.271,0.11-0.414c0.024-0.138,0.029-0.268,0.039-0.402
	c0.008-0.088,0.027-0.17,0.027-0.261c0-0.024-0.007-0.05-0.007-0.072C-128.672,109.234-128.692,109.096-128.713,108.953z
	 M-138.075,105.705h-55.695c1.14-3.453,1.79-7.067,1.79-10.725c0-6.9-2.072-13.317-5.602-18.697
	c4.95-12.813,17.206-21.308,31.081-21.308c18.385,0,33.34,14.955,33.34,33.34C-133.16,94.505-134.87,100.48-138.075,105.705z"/>
</svg>
